<svg width="37" height="37" viewBox="0 0 37 37" fill="none" xmlns="http://www.w3.org/2000/svg">
<g clip-path="url(#clip0)">
<path d="M26.2907 33.8608H9.67353C9.34596 33.8608 9.08008 34.1267 9.08008 34.4543V35.6412C9.08008 35.9688 9.34596 36.2347 9.67353 36.2347C10.0011 36.2347 10.267 35.9688 10.267 35.6412V35.0478H26.2907C26.6183 35.0478 26.8842 34.7819 26.8842 34.4543C26.8842 34.1268 26.6184 33.8608 26.2907 33.8608Z" fill="#8BC540"/>
<path d="M13.8279 15.4631C13.8279 15.7907 14.0938 16.0566 14.4213 16.0566H16.7953C17.1228 16.0566 17.3887 15.7907 17.3887 15.4631V11.9023C17.3887 11.5747 17.1228 11.3088 16.7953 11.3088H14.4214C14.0938 11.3088 13.8279 11.5747 13.8279 11.9023V15.4631H13.8279ZM15.0148 12.4958H16.2018V14.8697H15.0148V12.4958Z" fill="#8BC540"/>
<path d="M8.48659 7.74799H1.36493C1.03736 7.74799 0.771484 8.01387 0.771484 8.34143V20.2109C0.771484 20.5385 1.03736 20.8043 1.36493 20.8043C1.6925 20.8043 1.95838 20.5385 1.95838 20.2109V8.93495H8.48659C8.81416 8.93495 9.08004 8.66907 9.08004 8.3415C9.08004 8.01394 8.81423 7.74799 8.48659 7.74799Z" fill="#8BC540"/>
<path d="M29.2583 29.7064C29.2583 30.034 29.5242 30.2999 29.8517 30.2999H32.2256C32.5532 30.2999 32.8191 30.034 32.8191 29.7064V26.1456C32.8191 25.818 32.5532 25.5522 32.2256 25.5522H29.8517C29.5242 25.5522 29.2583 25.818 29.2583 26.1456V29.7064ZM30.4453 26.7391H31.6322V29.113H30.4453V26.7391Z" fill="#8BC540"/>
<path d="M3.73887 21.9914C0.805284 21.9914 0.771484 29.6293 0.771484 29.7065C0.771484 31.1397 1.79286 32.3379 3.14535 32.6139V35.6412C3.14535 35.9688 3.41123 36.2347 3.7388 36.2347C4.06637 36.2347 4.33225 35.9688 4.33225 35.6412V32.6139C5.68474 32.3379 6.70611 31.1397 6.70611 29.7065C6.70618 29.6293 6.67238 21.9914 3.73887 21.9914ZM3.73887 31.4869C2.75727 31.4869 1.95845 30.6881 1.95845 29.7065C1.95845 26.7498 2.75254 23.1783 3.73887 23.1783C4.72519 23.1783 5.51928 26.7498 5.51928 29.7065C5.51928 30.6881 4.72046 31.4869 3.73887 31.4869Z" fill="#8BC540"/>
<path d="M7.29966 18.4305H4.92572C4.59816 18.4305 4.33228 18.6964 4.33228 19.0239V20.2109C4.33228 20.5385 4.59816 20.8043 4.92572 20.8043C5.25329 20.8043 5.51917 20.5385 5.51917 20.2109V19.6174H6.70614V22.5848C6.70614 22.9124 6.97202 23.1783 7.29959 23.1783C7.62715 23.1783 7.89303 22.9124 7.89303 22.5848V19.024C7.8931 18.6964 7.62722 18.4305 7.29966 18.4305Z" fill="#8BC540"/>
<path d="M29.8517 16.0567H32.2256C32.5532 16.0567 32.8191 15.7908 32.8191 15.4632V11.9024C32.8191 11.5748 32.5532 11.3089 32.2256 11.3089H29.8517C29.5242 11.3089 29.2583 11.5748 29.2583 11.9024V15.4632C29.2583 15.7908 29.5242 16.0567 29.8517 16.0567ZM30.4453 12.4958H31.6322V14.8697H30.4453V12.4958Z" fill="#8BC540"/>
<path d="M7.29966 11.3088H4.92572C4.59816 11.3088 4.33228 11.5747 4.33228 11.9023V15.4631C4.33228 15.7907 4.59816 16.0566 4.92572 16.0566H7.29959C7.62715 16.0566 7.89303 15.7907 7.89303 15.4631V11.9023C7.8931 11.5747 7.62722 11.3088 7.29966 11.3088ZM6.70614 14.8697H5.51924V12.4958H6.70621V14.8697H6.70614Z" fill="#8BC540"/>
<path d="M19.7625 15.4631C19.7625 15.7907 20.0283 16.0566 20.3559 16.0566H22.7298C23.0573 16.0566 23.3232 15.7907 23.3232 15.4631V11.9023C23.3232 11.5747 23.0573 11.3088 22.7298 11.3088H20.3559C20.0283 11.3088 19.7625 11.5747 19.7625 11.9023V15.4631ZM20.9493 12.4958H22.1363V14.8697H20.9493V12.4958Z" fill="#8BC540"/>
<path d="M35.7864 7.74799H28.6647C28.3372 7.74799 28.0713 8.01387 28.0713 8.34143C28.0713 8.669 28.3372 8.93488 28.6647 8.93488H35.193V32.783C35.0066 32.7165 34.809 32.6738 34.5995 32.6738C34.4969 32.6738 34.3948 32.6827 34.2945 32.7005C33.885 31.9628 33.1058 31.4868 32.2256 31.4868C31.3455 31.4868 30.5663 31.9628 30.1568 32.7005C30.0565 32.6827 29.9544 32.6738 29.8518 32.6738C28.8702 32.6738 28.0714 33.4726 28.0714 34.4542C28.0714 35.4358 28.8702 36.2346 29.8518 36.2346H34.5994C35.581 36.2346 36.3798 35.4358 36.3798 34.4542V8.34143C36.3798 8.01387 36.114 7.74799 35.7864 7.74799ZM34.5994 35.0477H29.8516C29.5246 35.0477 29.2582 34.7812 29.2582 34.4542C29.2582 34.1272 29.5246 33.8608 29.8516 33.8608C29.9656 33.8608 30.0736 33.8934 30.1733 33.9575C30.3359 34.062 30.5389 34.081 30.7181 34.0086C30.8974 33.9362 31.0297 33.7807 31.073 33.5925C31.1983 33.0519 31.6725 32.6738 32.2256 32.6738C32.7787 32.6738 33.2529 33.0519 33.3781 33.5925C33.4214 33.7807 33.5538 33.9362 33.733 34.0086C33.9117 34.081 34.1152 34.062 34.2778 33.9575C34.6642 33.7083 35.193 34.0133 35.193 34.4542C35.1929 34.7812 34.9264 35.0477 34.5994 35.0477Z" fill="#8BC540"/>
<path d="M20.3559 8.93495H22.7298C23.0573 8.93495 23.3232 8.66907 23.3232 8.34151V4.78067C23.3232 4.45311 23.0573 4.18723 22.7298 4.18723H20.3559C20.0283 4.18723 19.7625 4.45311 19.7625 4.78067V8.34151C19.7625 8.66907 20.0283 8.93495 20.3559 8.93495ZM20.9493 5.37412H22.1363V7.74799H20.9493V5.37412Z" fill="#8BC540"/>
<path d="M19.7625 22.5848C19.7625 22.9123 20.0283 23.1782 20.3559 23.1782H22.7298C23.0573 23.1782 23.3232 22.9123 23.3232 22.5848V19.0239C23.3232 18.6964 23.0573 18.4305 22.7298 18.4305H20.3559C20.0283 18.4305 19.7625 18.6964 19.7625 19.0239V22.5848ZM20.9493 19.6174H22.1363V21.9913H20.9493V19.6174Z" fill="#8BC540"/>
<path d="M14.4213 8.93495H16.7952C17.1228 8.93495 17.3886 8.66907 17.3886 8.34151V4.78067C17.3886 4.45311 17.1228 4.18723 16.7952 4.18723H14.4213C14.0938 4.18723 13.8279 4.45311 13.8279 4.78067V8.34151C13.8278 8.66907 14.0937 8.93495 14.4213 8.93495ZM15.0148 5.37412H16.2017V7.74799H15.0148V5.37412Z" fill="#8BC540"/>
<path d="M18.1543 29.2851C18.0475 29.3979 17.9822 29.5522 17.9822 29.7065C17.9822 29.8608 18.0475 30.0151 18.1543 30.1279C18.267 30.2347 18.4214 30.3 18.5757 30.3C18.73 30.3 18.8843 30.2347 18.9971 30.1279C19.1039 30.0152 19.1692 29.8608 19.1692 29.7065C19.1692 29.5522 19.1039 29.3979 18.9971 29.2851C18.7715 29.0655 18.3798 29.0655 18.1543 29.2851Z" fill="#8BC540"/>
<path d="M13.8279 22.5848C13.8279 22.9123 14.0938 23.1782 14.4213 23.1782H16.7953C17.1228 23.1782 17.3887 22.9123 17.3887 22.5848V19.0239C17.3887 18.6964 17.1228 18.4305 16.7953 18.4305H14.4214C14.0938 18.4305 13.8279 18.6964 13.8279 19.0239V22.5848H13.8279ZM15.0148 19.6174H16.2018V21.9913H15.0148V19.6174Z" fill="#8BC540"/>
<path d="M12.6409 26.1456C12.6409 26.4732 12.9067 26.7391 13.2343 26.7391H15.0147V32.0803C15.0147 32.4079 15.2806 32.6737 15.6082 32.6737C15.9358 32.6737 16.2016 32.4079 16.2016 32.0803V26.7391H20.9494V32.0803C20.9494 32.4079 21.2153 32.6737 21.5429 32.6737C21.8705 32.6737 22.1363 32.4079 22.1363 32.0803V26.7391H23.9167C24.2443 26.7391 24.5102 26.4732 24.5102 26.1456C24.5102 25.818 24.2443 25.5522 23.9167 25.5522H13.2343C12.9067 25.5522 12.6409 25.818 12.6409 26.1456Z" fill="#8BC540"/>
<path d="M29.2583 22.5848C29.2583 22.9123 29.5242 23.1782 29.8517 23.1782H32.2256C32.5532 23.1782 32.8191 22.9123 32.8191 22.5848V19.0239C32.8191 18.6964 32.5532 18.4305 32.2256 18.4305H29.8517C29.5242 18.4305 29.2583 18.6964 29.2583 19.0239V22.5848ZM30.4453 19.6174H31.6322V21.9913H30.4453V19.6174Z" fill="#8BC540"/>
<path d="M26.2908 0.626343H10.8605C10.533 0.626343 10.2671 0.892223 10.2671 1.21979V32.0803C10.2671 32.4079 10.533 32.6738 10.8605 32.6738C11.1881 32.6738 11.454 32.4079 11.454 32.0803V1.81324H25.6973V32.0803C25.6973 32.4079 25.9632 32.6738 26.2908 32.6738C26.6183 32.6738 26.8842 32.4079 26.8842 32.0803V1.21979C26.8843 0.892223 26.6184 0.626343 26.2908 0.626343Z" fill="#8BC540"/>
</g>
<defs>
<clipPath id="clip0">
<rect width="35.6083" height="35.6083" fill="white" transform="translate(0.771729 0.626343)"/>
</clipPath>
</defs>
</svg>
