<svg width="17" height="10" viewBox="0 0 17 10" fill="none" xmlns="http://www.w3.org/2000/svg">
<path d="M9.16334 9.72849L16.7284 2.15369C16.9035 1.97849 17 1.74462 17 1.49525C17 1.24588 16.9035 1.01201 16.7284 0.836816L16.1714 0.278985C15.8085 -0.0839998 15.2186 -0.0839998 14.8562 0.278985L8.50352 6.63973L2.14378 0.271927C1.96867 0.0967313 1.73523 0 1.48631 0C1.23712 0 1.00368 0.0967313 0.828432 0.271927L0.271584 0.829758C0.0964718 1.00509 0 1.23883 0 1.4882C0 1.73757 0.0964718 1.97144 0.271584 2.14663L7.84357 9.72849C8.01924 9.9041 8.25378 10.0006 8.50311 10C8.75341 10.0006 8.98781 9.9041 9.16334 9.72849Z" fill="#2F444E"/>
</svg>
