<svg width="41" height="41" viewBox="0 0 41 41" fill="none" xmlns="http://www.w3.org/2000/svg">
<path d="M29.3954 15.0214C28.7292 14.3543 27.6461 14.3543 26.9798 15.0214L19.646 22.3544L16.5829 19.2922C15.9167 18.6251 14.8336 18.6251 14.1673 19.2922C13.5002 19.9593 13.5002 21.0407 14.1673 21.7078L18.4382 25.9786C18.7713 26.3126 19.2086 26.4792 19.646 26.4792C20.0833 26.4792 20.5206 26.3126 20.8537 25.9786L29.3954 17.437C30.0625 16.7699 30.0625 15.6885 29.3954 15.0214Z" fill="#8BC540"/>
<path d="M39.2917 18.7917C38.3487 18.7917 37.5833 19.557 37.5833 20.5C37.5833 29.9198 29.9198 37.5833 20.5 37.5833C11.0803 37.5833 3.41667 29.9198 3.41667 20.5C3.41667 11.0803 11.0803 3.41667 20.5 3.41667C25.086 3.41667 29.391 5.20871 32.6232 8.46308C33.2869 9.1336 34.3691 9.13702 35.0388 8.47163C35.7084 7.80708 35.7119 6.72571 35.0473 6.05604C31.1694 2.15079 26.0025 0 20.5 0C9.19596 0 0 9.19596 0 20.5C0 31.804 9.19596 41 20.5 41C31.804 41 41 31.804 41 20.5C41 19.557 40.2347 18.7917 39.2917 18.7917Z" fill="#2F444E"/>
</svg>
