<svg width="20" height="20" viewBox="0 0 20 20" fill="none" xmlns="http://www.w3.org/2000/svg">
<path d="M17.0696 2.92738C13.1638 -0.977271 6.83215 -0.976333 2.9275 2.92953C-0.977148 6.83539 -0.976211 13.167 2.92965 17.0717C6.83551 20.9763 13.1671 20.9754 17.0718 17.0695C18.947 15.1937 20.0002 12.6498 19.9996 9.99738C19.9991 7.34543 18.9452 4.8023 17.0696 2.92738ZM15.1443 13.9294C15.1439 13.9298 15.1434 13.9303 15.143 13.9307V13.9274L14.6363 14.4307C13.981 15.0943 13.0267 15.3673 12.1196 15.1507C11.2057 14.9061 10.337 14.5168 9.54629 13.9974C8.81168 13.5279 8.1309 12.9791 7.51629 12.3607C6.95078 11.7994 6.44273 11.183 5.99961 10.5207C5.51492 9.80816 5.13129 9.03191 4.85961 8.21406C4.54816 7.25328 4.80625 6.19902 5.52629 5.49074L6.11961 4.89742C6.28457 4.73172 6.55262 4.73113 6.71828 4.89609C6.71871 4.89652 6.71918 4.89695 6.71961 4.89742L8.59293 6.77074C8.75863 6.9357 8.75922 7.20375 8.59426 7.36941C8.59383 7.36984 8.5934 7.37027 8.59293 7.37074L7.49293 8.47074C7.1773 8.78293 7.13762 9.27902 7.39961 9.63742C7.79746 10.1834 8.23773 10.6972 8.71629 11.1741C9.24984 11.71 9.82988 12.1974 10.4496 12.6308C10.8077 12.8805 11.2932 12.8384 11.6029 12.5308L12.6662 11.4508C12.8312 11.2851 13.0993 11.2845 13.2649 11.4495C13.2653 11.4499 13.2658 11.4503 13.2662 11.4508L15.1429 13.3308C15.3087 13.4957 15.3093 13.7637 15.1443 13.9294Z" fill="#2F444E"/>
</svg>
